<?xml version="1.0" encoding="UTF-8" standalone="no"?>
<!DOCTYPE svg PUBLIC "-//W3C//DTD SVG 1.1//EN"
 "http://www.w3.org/Graphics/SVG/1.1/DTD/svg11.dtd">
<!-- Generated by graphviz version 2.38.0 (20140413.2041)
 -->
<!-- Title: G Pages: 1 -->
<svg width="128pt" height="165pt"
 viewBox="0.00 0.00 127.61 165.00" xmlns="http://www.w3.org/2000/svg" xmlns:xlink="http://www.w3.org/1999/xlink">
<g id="graph0" class="graph" transform="scale(1 1) rotate(0) translate(4 161)">
<title>G</title>
<polygon fill="white" stroke="none" points="-4,4 -4,-161 123.606,-161 123.606,4 -4,4"/>
<g id="clust1" class="cluster"><title>cluster_Global</title>
<path fill="none" stroke="gray" d="M20,-8C20,-8 99.6064,-8 99.6064,-8 105.606,-8 111.606,-14 111.606,-20 111.606,-20 111.606,-137 111.606,-137 111.606,-143 105.606,-149 99.6064,-149 99.6064,-149 20,-149 20,-149 14,-149 8,-143 8,-137 8,-137 8,-20 8,-20 8,-14 14,-8 20,-8"/>
<text text-anchor="middle" x="59.8032" y="-136.2" font-family="Times,serif" font-size="11.00" fill="gray">Global</text>
</g>
<g id="clust2" class="cluster"><title>cluster_\maccotsan</title>
<path fill="none" stroke="gray" d="M28,-16C28,-16 91.6064,-16 91.6064,-16 97.6064,-16 103.606,-22 103.606,-28 103.606,-28 103.606,-110 103.606,-110 103.606,-116 97.6064,-122 91.6064,-122 91.6064,-122 28,-122 28,-122 22,-122 16,-116 16,-110 16,-110 16,-28 16,-28 16,-22 22,-16 28,-16"/>
<text text-anchor="middle" x="59.8032" y="-109.2" font-family="Times,serif" font-size="11.00" fill="gray">maccotsan</text>
</g>
<g id="clust3" class="cluster"><title>cluster_\maccotsan\Csv</title>
<path fill="none" stroke="gray" d="M36,-24C36,-24 83.6064,-24 83.6064,-24 89.6064,-24 95.6064,-30 95.6064,-36 95.6064,-36 95.6064,-83 95.6064,-83 95.6064,-89 89.6064,-95 83.6064,-95 83.6064,-95 36,-95 36,-95 30,-95 24,-89 24,-83 24,-83 24,-36 24,-36 24,-30 30,-24 36,-24"/>
<text text-anchor="middle" x="59.8032" y="-82.2" font-family="Times,serif" font-size="11.00" fill="gray">Csv</text>
</g>
<!-- \\maccotsan\\Csv\\Reader -->
<g id="node1" class="node"><title>\\maccotsan\\Csv\\Reader</title>
<polygon fill="none" stroke="black" points="87.4111,-68 32.1954,-68 32.1954,-32 87.4111,-32 87.4111,-68"/>
<text text-anchor="middle" x="59.8032" y="-46.7" font-family="Courier,monospace" font-size="11.00">Reader</text>
</g>
</g>
</svg>
